<?xml version="1.0" standalone="no"?>
<!DOCTYPE svg PUBLIC "-//W3C//DTD SVG 1.1//EN" "http://www.w3.org/Graphics/SVG/1.1/DTD/svg11.dtd" >
<svg>
<metadata>
Created by FontForge 20120731 at Mon Jan 29 17:03:35 2018
 By www-data
Copyright 2013 Google Inc. All Rights Reserved.
</metadata>
<defs>
<font id="NotoSansMeeteiMayek" horiz-adv-x="0" >
  <font-face 
    font-family="Noto Sans Meetei Mayek"
    font-weight="400"
    font-stretch="normal"
    units-per-em="2048"
    panose-1="2 11 5 2 4 5 4 2 2 4"
    ascent="1638"
    descent="-410"
    bbox="-2350 -651 2350 2132"
    underline-thickness="102"
    underline-position="-103"
    unicode-range="U+000D-FEFF"
  />
<missing-glyph horiz-adv-x="1229" 
d="M193 1462h841v-1462h-841v1462zM297 104h633v1254h-633v-1254z" />
    <glyph glyph-name=".notdef" horiz-adv-x="1229" 
d="M193 1462h841v-1462h-841v1462zM297 104h633v1254h-633v-1254z" />
    <glyph glyph-name="null" unicode="&#xfeff;" 
 />
    <glyph glyph-name="null" 
 />
    <glyph glyph-name="nonmarkingreturn" unicode="&#xd;" 
 />
    <glyph glyph-name="space" unicode=" " horiz-adv-x="532" 
 />
    <glyph glyph-name="space" unicode="&#xa0;" horiz-adv-x="532" 
 />
    <glyph glyph-name="uniAAE0" unicode="&#xaae0;" horiz-adv-x="1397" 
d="M223 1053q150 315 516 315q260 0 397.5 -143.5t137.5 -417.5v-811q-148 82 -313 82q-105 0 -256 -41q-144 -41 -250 -41q-238 0 -375 162l100 110q99 -123 281 -123q96 0 256 43q157 43 244 43q65 0 147 -20v635q0 174 -96.5 271t-276.5 97q-129 0 -215 -55t-151 -184z
" />
    <glyph glyph-name="uniAAE1" unicode="&#xaae1;" horiz-adv-x="1321" 
d="M66 1200v150h1183v-150h-884v-684q0 -362 376 -362q256 0 367 252l141 -78q-61 -152 -187 -240t-319 -88q-272 0 -409 144.5t-137 416.5v639h-131z" />
    <glyph glyph-name="uniAAE2" unicode="&#xaae2;" horiz-adv-x="1642" 
d="M643 1096h354v10q0 98 77 170t194 72q131 0 211 -77t80 -204q0 -57 -16.5 -109.5t-47.5 -106.5t-152 -210q-71 -86 -111 -156.5t-40 -154.5q0 -70 59.5 -119t124.5 -57l-43 -162q-76 10 -147.5 55t-115.5 115.5t-44 167.5q0 92 47 190t158 225q164 187 164 322
q0 47 -29 86t-96 39q-56 0 -87.5 -38t-31.5 -112q0 -43 14 -90h-690q14 47 17 90q0 72 -33 111t-88 39q-68 0 -96.5 -39t-28.5 -86q0 -135 164 -322q112 -131 158 -228t46 -187q0 -97 -44 -167.5t-114.5 -115.5t-148.5 -55l-43 162q66 8 125.5 57t59.5 119q0 84 -40 154.5
t-112 156.5q-121 154 -150.5 207t-47 106.5t-17.5 112.5q0 127 79 204t212 77q121 0 195.5 -71t74.5 -181z" />
    <glyph glyph-name="uniAAE3" unicode="&#xaae3;" horiz-adv-x="1538" 
d="M70 0q0 170 86 273.5t239 103.5q156 0 228 -111l163 1084h164l-4 -70q0 -201 176 -201q183 0 183 271h165q0 -197 -92 -303.5t-254 -106.5q-139 0 -227 88l-149 -1016v-12h-166q0 98 -43 164.5t-144 66.5q-174 0 -174 -231h-151z" />
    <glyph glyph-name="uniAAE4" unicode="&#xaae4;" horiz-adv-x="2175" 
d="M862 1194q-57 0 -123.5 -53.5t-175.5 -204.5l-41 -53q135 -189 202 -318t67 -241q0 -156 -100.5 -244t-266.5 -88q-162 0 -265.5 91t-103.5 241q0 104 65.5 237t252 384t288 328t203.5 77q70 0 131.5 -31t122 -88t178.5 -213q129 166 189.5 222t125 87t138.5 31
q174 0 256 -98.5t82 -305.5v-954h-174v946q0 137 -40 196.5t-136 59.5q-129 0 -295 -254l-35 -51l-12 -10q141 -191 205.5 -321t64.5 -240q0 -152 -99.5 -242t-267.5 -90q-163 0 -266.5 91t-103.5 241q0 102 58 224t212 333q-135 190 -205.5 250.5t-130.5 60.5zM1100 352
q0 -104 55 -155.5t141 -51.5t141.5 51.5t55.5 159.5q0 127 -199 394q-90 -125 -142 -222.5t-52 -175.5zM225 350q0 -104 56.5 -155.5t140.5 -51.5q86 0 142.5 51.5t56.5 159.5q0 125 -201 394q-90 -125 -142.5 -222.5t-52.5 -175.5z" />
    <glyph glyph-name="uniAAE5" unicode="&#xaae5;" horiz-adv-x="1397" 
d="M182 0v891h420v307h-522v152h1229v-152h-541v-307h418v-891h-1004zM1016 143v596h-248v-596h248zM602 143v596h-248v-596h248z" />
    <glyph glyph-name="uniAAE6" unicode="&#xaae6;" horiz-adv-x="1726" 
d="M1059 154q401 18 401 426q0 372 -235 372q-111 0 -167.5 -44t-87 -141t-30.5 -251h-168q-2 158 -30.5 252t-81 138t-156.5 44q-256 0 -256 -372q0 -220 102.5 -320t298.5 -104v-156q-276 4 -427.5 155.5t-151.5 424.5q0 243 109.5 380.5t312.5 143.5q34 117 131.5 185.5
t228.5 68.5q135 0 233.5 -66.5t135.5 -187.5q407 0 407 -522q0 -275 -146.5 -424.5t-422.5 -157.5v156zM856 817q51 195 215 260q-20 64 -76.5 105t-140.5 41q-78 0 -134 -37t-77 -107q166 -57 213 -262z" />
    <glyph glyph-name="uniAAE7" unicode="&#xaae7;" horiz-adv-x="1825" 
d="M1358 1350q336 0 336 -387v-963h-174v954q0 127 -41 183.5t-133 56.5q-39 0 -81 -27.5t-88.5 -73.5t-172.5 -210q157 -219 212.5 -338t55.5 -219q0 -156 -100.5 -244t-266.5 -88q-162 0 -265 91t-103 241q0 98 49 208.5t219 348.5q-148 192 -218.5 251.5t-123.5 59.5
q-94 0 -134 -56.5t-40 -183.5v-954h-176v963q0 387 338 387q112 0 213.5 -71t238.5 -261q150 196 248 264t207 68zM707 352q0 -104 56 -155.5t140 -51.5q86 0 142.5 51.5t56.5 159.5q0 131 -199 396q-92 -127 -144 -223.5t-52 -176.5z" />
    <glyph glyph-name="uniAAE8" unicode="&#xaae8;" horiz-adv-x="1331" 
d="M369 1202v-1202h-166v1200h-127v150h1184v-148h-891zM489 897v143h422q46 0 93 -10.5t85.5 -36.5t63 -70t24.5 -112q0 -18 -2 -37t-6 -41l-141 -747l-149 30l133 721q2 14 3.5 26t1.5 23q0 61 -35 86t-101 25h-392z" />
    <glyph glyph-name="uniAAE9" unicode="&#xaae9;" horiz-adv-x="2408" 
d="M96 1350h2224v-150q-75 -41 -228 -150.5t-275 -220.5q176 -163 238.5 -264.5t62.5 -204.5q0 -174 -112 -276t-294 -102q-186 0 -296.5 103t-110.5 275q0 95 58 195t241 276q-205 181 -394 310q-196 -133 -397 -312q176 -163 238.5 -264.5t62.5 -204.5q0 -174 -111.5 -276
t-293.5 -102q-187 0 -297.5 103t-110.5 275q0 95 58.5 195t240.5 276q-119 105 -267.5 212.5t-236.5 156.5v150zM1483 367q0 -109 63.5 -174.5t165.5 -65.5q100 0 163.5 67.5t63.5 172.5q0 165 -227 348q-229 -166 -229 -348zM479 367q0 -109 63.5 -174.5t166.5 -65.5
q100 0 163.5 67.5t63.5 172.5q0 165 -227 348q-230 -166 -230 -348zM1364 1200q164 -123 348 -272q154 135 361 272h-709zM360 1200q164 -123 349 -272q153 135 360 272h-709z" />
    <glyph glyph-name="uniAAEA" unicode="&#xaaea;" horiz-adv-x="1266" 
d="M1167 0h-1087v791q0 264 146.5 416.5t394.5 152.5q256 0 401 -151.5t145 -417.5v-791zM250 145h749v433h-749v-433zM999 817q0 187 -98 287t-278 100q-179 0 -276 -101.5t-97 -285.5v-94h749v94z" />
    <glyph glyph-name="uniAAEB" unicode="&#xaaeb;" horiz-adv-x="831" 
d="M410 -4v1200q-371 10 -371 279q0 114 72.5 185t193.5 71q279 0 279 -271v-106h194v-158h-194v-1200h-174zM410 1460q0 72 -25 98.5t-76 26.5q-98 0 -98 -108q0 -76 53 -99.5t146 -23.5v106z" />
    <glyph glyph-name="uniAAEC" unicode="&#xaaec;" 
d="M-135 -123q8 -16 8 -86q0 -203 -192 -203q-101 0 -148 80q-47 -80 -154 -80q-190 0 -190 203l8 86h113l-6 -80q0 -96 82 -96q32 0 60 19.5t28 62.5v94h118v-94q0 -39 25 -60.5t57 -21.5q47 0 65.5 23.5t18.5 72.5l-6 80h113z" />
    <glyph glyph-name="uniAAED" unicode="&#xaaed;" 
d="M-948 2132q200 -119 310 -245t110 -234q0 -90 -58.5 -144.5t-154.5 -54.5q-97 0 -153 55.5t-56 147.5q0 72 36.5 121t100.5 94q-35 39 -90 73.5t-117 73.5zM-666 1663q0 82 -59 133q-96 -63 -96 -139q0 -41 21.5 -62.5t54.5 -21.5q26 0 52.5 21.5t26.5 68.5z" />
    <glyph glyph-name="uniAAEE" unicode="&#xaaee;" horiz-adv-x="831" 
d="M410 -4v1200h-23q-168 0 -258 72.5t-90 206.5q0 114 72.5 185t193.5 71q279 0 279 -271v-377h155v-157h-155v-930h-174zM410 1460q0 72 -25 98.5t-76 26.5q-98 0 -98 -108q0 -125 160 -125h20l19 2v106z" />
    <glyph glyph-name="uniAAEF" unicode="&#xaaef;" horiz-adv-x="807" 
d="M195 -4v930h-156v157h156v377q0 271 278 271q119 0 192.5 -70t73.5 -186q0 -134 -89 -206.5t-259 -72.5h-22v-1200h-174zM369 1354l20 -2h19q159 0 159 125q0 108 -98 108q-51 0 -75.5 -26.5t-24.5 -98.5v-106z" />
    <glyph glyph-name="uniAAF0" unicode="&#xaaf0;" horiz-adv-x="477" 
d="M176 -61v1470h168v-1470h-168z" />
    <glyph glyph-name="uniAAF1" unicode="&#xaaf1;" horiz-adv-x="1327" 
d="M1243 885q-108 -135 -253.5 -190.5t-332.5 -55.5q-190 0 -331.5 53t-249.5 193l108 98q162 -203 473 -203q154 0 272 45t208 158zM1137 170q-90 115 -208 160t-272 45q-151 0 -268 -46t-205 -159l-108 100q110 138 249.5 191t331.5 53q187 0 332.5 -54t253.5 -190z" />
    <glyph glyph-name="uniAAF2" unicode="&#xaaf2;" horiz-adv-x="926" 
d="M852 225q-131 -231 -383 -231q-166 0 -265.5 87t-99.5 232q0 90 57.5 169t262.5 229q151 110 181 139t45.5 56.5t15.5 64.5q0 80 -49.5 122t-131.5 42q-149 0 -219 -146l-139 70q111 215 358 215q152 0 243 -84t91 -227q0 -154 -203 -291q-215 -150 -284.5 -224.5
t-69.5 -142.5q0 -90 60.5 -131t144.5 -41q160 0 260 178zM393 1657q0 35 24.5 59.5t59.5 24.5t59.5 -24.5t24.5 -59.5t-24.5 -59.5t-59.5 -24.5t-59.5 24.5t-24.5 59.5zM279 1593q61 -133 200 -133q146 0 201 129l121 -41q-33 -94 -117 -146t-205 -52q-246 0 -321 198z" />
    <glyph glyph-name="uniAAF3" unicode="&#xaaf3;" horiz-adv-x="1358" 
d="M682 635q127 98 178 175t51 165q0 106 -62.5 167.5t-166.5 61.5t-166.5 -61.5t-62.5 -167.5q0 -88 50 -162t179 -178zM678 1350q190 0 301 -98.5t111 -270.5q0 -107 -67 -208t-235 -238q140 -134 484 -435l-107 -118l-483 456l-483 -456l-107 118q369 330 481 432
q-170 140 -234.5 240t-64.5 209q0 174 110 271.5t294 97.5z" />
    <glyph glyph-name="uniAAF4" unicode="&#xaaf4;" horiz-adv-x="772" 
d="M80 1346l74 4q178 0 285.5 -97.5t107.5 -271.5q0 -125 -65.5 -226.5t-196.5 -217.5l194 -222l211 -233l-119 -100q-90 100 -487 569q158 137 223.5 227t65.5 187q0 114 -65.5 170.5t-168.5 56.5h-20l-21 -2z" />
    <glyph glyph-name="uniAAF5" unicode="&#xaaf5;" horiz-adv-x="645" 
d="M227 0v242q-61 17 -108 61q-78 72 -78 178q0 111 79 185.5t191 74.5q121 0 202 -75.5t81 -184.5q0 -106 -82 -178q-52 -45 -117 -62v-241h-168zM311 612q-51 0 -86 -35.5t-35 -89.5q0 -55 35 -90t86 -35q56 0 91.5 35t35.5 90q0 54 -35.5 89.5t-91.5 35.5z" />
    <glyph glyph-name="uniAAF6" unicode="&#xaaf6;" 
d="M-1085 -651v170h-166v129h166v168h137v-168h164v-129h-164v-170h-137z" />
    <glyph glyph-name="uniABC0" unicode="&#xabc0;" horiz-adv-x="1776" 
d="M1597 0h-1462v1198h-67v152h1607v-152h-78v-1198zM1434 141v885l-275 -213v-672h275zM305 330l268 205v663h-268v-868zM741 141h254v545l-254 -197v-348zM741 662l254 194v342h-254v-536zM1434 1198h-275v-219l275 209v10zM305 141h268v219l-268 -208v-11z" />
    <glyph glyph-name="uniABC1" unicode="&#xabc1;" horiz-adv-x="1675" 
d="M1034 158q189 8 291 166.5t102 439.5q0 159 -24 257t-70 143.5t-133 45.5q-96 0 -152.5 -53t-87 -164.5t-32.5 -292.5h-168q-3 258 -65.5 383t-194.5 125q-91 0 -141.5 -45t-76.5 -142t-26 -259q0 -290 101 -445t292 -159v-160q-171 3 -301 97t-200 267t-70 400
q0 199 53 334.5t148.5 203.5t230.5 68q265 0 330 -285h8q41 141 133 214t233 73q188 0 284.5 -156t96.5 -450q0 -232 -66.5 -402t-195 -264.5t-299.5 -99.5v160z" />
    <glyph glyph-name="uniABC2" unicode="&#xabc2;" horiz-adv-x="1296" 
d="M946 727q-123 166 -340 166q-156 0 -238.5 -98t-82.5 -279q0 -175 89 -274t249 -99q117 0 231.5 48.5t204.5 130.5l106 -115q-116 -104 -247 -159.5t-295 -55.5q-231 0 -372.5 137.5t-141.5 388.5q0 518 485 518q190 0 352 -110v274h-889v150h1131v-150h-74v-473h-168z
" />
    <glyph glyph-name="uniABC3" unicode="&#xabc3;" horiz-adv-x="1466" 
d="M1110 338q0 -90 50.5 -141.5t146.5 -51.5q24 0 49 5l33 -146q-38 -10 -107 -10q-152 0 -240 86t-88 227q0 160 109 250h-303v-557h-166v557h-287v-557h-166v1200h-71v150h1302v-150h-612v-498h549l-2 -145q-88 -9 -142.5 -72t-54.5 -147zM307 702h287v498h-287v-498z" />
    <glyph glyph-name="uniABC4" unicode="&#xabc4;" horiz-adv-x="1995" 
d="M1118 0v1200h-215v-1200h-168v1200h-426q130 -157 200.5 -323t70.5 -320q0 -139 -56.5 -258.5t-161 -197t-247.5 -101.5l-47 150q164 35 254 147t90 287q0 153 -86.5 319.5t-227.5 296.5v150h1825v-150q-152 -136 -232.5 -297.5t-80.5 -318.5q0 -172 90 -285.5
t254 -148.5l-45 -150q-143 24 -248.5 101t-162 195.5t-56.5 260.5q0 155 71.5 323.5t196.5 319.5h-424v-1200h-168z" />
    <glyph glyph-name="uniABC5" unicode="&#xabc5;" horiz-adv-x="1477" 
d="M1303 201q-249 -215 -539 -215q-179 0 -322.5 82.5t-223 234.5t-79.5 356q0 247 92 541h-137v150h1309v-150h-103l-227 -438l-151 80l194 358h-688q-106 -274 -106 -541q0 -157 55 -271t156.5 -175t234.5 -61q228 0 434 174z" />
    <glyph glyph-name="uniABC6" unicode="&#xabc6;" horiz-adv-x="1561" 
d="M47 1350h1430v-150q-141 -132 -226.5 -300.5t-85.5 -315.5q0 -174 87 -286.5t249 -147.5l-47 -150q-138 21 -240.5 96.5t-157 191t-57.5 257.5h-473q-5 -221 -127.5 -367t-326.5 -178l-47 150q163 35 250 147.5t87 286.5q0 161 -83.5 324t-231.5 292v150zM512 692h502
q50 257 260 508h-1014q206 -251 252 -508z" />
    <glyph glyph-name="uniABC7" unicode="&#xabc7;" horiz-adv-x="1606" 
d="M117 1350h610q230 0 418 -78q148 138 215 194l104 -112q-136 -112 -178 -154q125 -81 180.5 -169.5t55.5 -194.5q0 -93 -40.5 -162t-112 -105.5t-159.5 -36.5q-147 0 -233 85.5t-86 234.5q0 70 38.5 148.5t108.5 152.5q-128 47 -325 47h-351q197 -186 306.5 -387
t109.5 -385q0 -197 -106.5 -315.5t-278.5 -118.5q-203 0 -336 168l125 108q45 -62 98.5 -92.5t104.5 -30.5q102 0 160.5 79.5t58.5 209.5q0 188 -133 396.5t-354 367.5v150zM1049 852q0 -89 42 -137.5t119 -48.5q69 0 112.5 46.5t43.5 123.5q0 79 -50.5 149.5t-139.5 118.5
q-127 -134 -127 -252z" />
    <glyph glyph-name="uniABC8" unicode="&#xabc8;" horiz-adv-x="1491" 
d="M70 1350h1351v-150h-1157q227 -272 264 -493q53 111 135 166t207 55q96 0 175 -37.5t122 -105.5t43 -158q0 -46 -19 -127q-20 -82 -20 -123q0 -64 60 -64q39 0 76 35l102 -108q-76 -76 -186 -76q-97 0 -156 57.5t-59 155.5q0 32 29 206l5 44q0 69 -48.5 112t-129.5 43
q-118 0 -193 -86t-126 -284q-40 -165 -150.5 -270t-288.5 -142l-47 147q164 41 250 146.5t86 267.5q0 151 -91 328.5t-234 310.5v150z" />
    <glyph glyph-name="uniABC9" unicode="&#xabc9;" horiz-adv-x="1767" 
d="M12 651q67 31 170 31q150 0 236 -77t86 -218q0 -133 -96 -240h194v1203h1092v-148h-76v-1055h86v-147h-1559v147q93 19 146 79t53 139q0 77 -42.5 123.5t-123.5 46.5q-55 0 -112 -23zM1196 147h256v1055h-256v-1055zM778 147h254v1055h-254v-1055z" />
    <glyph glyph-name="uniABCA" unicode="&#xabca;" horiz-adv-x="1382" 
d="M788 330q0 -89 49 -139t130 -50q78 0 118.5 45.5t40.5 114.5q0 50 -33 86t-89 47l30 154q119 -26 186.5 -102.5t67.5 -184.5q0 -143 -85 -225t-234 -82q-180 0 -260 143q-50 -69 -120.5 -106t-144.5 -37q-150 0 -233.5 82t-83.5 225q0 109 66.5 185t183.5 102l29 -154
q-55 -11 -86 -47t-31 -86q0 -71 39.5 -115.5t122.5 -44.5q77 0 125.5 50.5t48.5 138.5v868h-539v152h1206v-152h-504v-868z" />
    <glyph glyph-name="uniABCB" unicode="&#xabcb;" horiz-adv-x="1710" 
d="M295 1200q268 -313 268 -637q0 -150 -55 -266.5t-165.5 -194.5t-252.5 -102l-45 164q170 36 260 142t90 269q0 145 -84 315t-235 314v146h1566v-146q-165 -162 -248 -329t-83 -320q0 -146 91.5 -253.5t260.5 -151.5l-47 -150q-124 30 -253.5 117t-258.5 230t-309 405
l137 96q125 -198 221 -316l-2 23v20q0 317 281 625h-1137z" />
    <glyph glyph-name="uniABCC" unicode="&#xabcc;" horiz-adv-x="1628" 
d="M930 637h90q142 0 217.5 73t75.5 203q0 131 -88 209t-236 78h-377q-143 0 -228 -74.5t-85 -205.5q0 -144 74 -213.5t211 -69.5h94v-170l-440 -477l-125 116l401 402q-103 2 -192 52t-140 140t-51 211q0 179 133 289h-188v150h1468v-150h-205q140 -117 140 -301
q0 -110 -50.5 -197.5t-142.5 -139t-190 -54.5l-9 -2q119 -147 199 -252q37 -50 72 -80.5t80 -30.5q26 0 71 17l31 -152q-48 -18 -117 -18q-133 0 -249 157l-244 328v162z" />
    <glyph glyph-name="uniABCD" unicode="&#xabcd;" horiz-adv-x="1417" 
d="M55 1350h1313v-150h-1313v150zM893 614q12 -9 48.5 -19.5t57.5 -10.5q79 0 121.5 45t42.5 127q0 80 -41 127t-114 47q-80 0 -139 -47.5t-108.5 -151t-84.5 -248.5q-41 -165 -107 -268.5t-160 -159.5t-235 -56q-41 0 -84 5l16 146l45 -1q124 0 191 43t113.5 130.5
t85.5 242.5q64 249 181.5 378.5t283.5 129.5q88 0 160 -37t113.5 -106.5t41.5 -169.5q0 -101 -39.5 -172t-110 -108.5t-157.5 -37.5q-51 0 -104.5 15t-82.5 35z" />
    <glyph glyph-name="uniABCE" unicode="&#xabce;" horiz-adv-x="1565" 
d="M66 1350h1407v-150h-1184q-4 -40 -4 -106q2 -245 142 -375.5t394 -130.5q136 0 221 33q-49 54 -76.5 112t-27.5 105q0 118 75.5 187t190.5 69t188.5 -73t73.5 -185q0 -86 -46 -152t-146 -131q96 -109 130 -175.5t34 -166.5q0 -98 -84 -211h-178q-9 197 -136 197
q-72 0 -108 -45t-39 -152h-168q-5 97 -49.5 150t-122.5 53q-85 0 -135 -51t-53 -152h-168q5 101 48.5 183.5t118 123.5t175.5 41t171.5 -43.5t98.5 -126.5q20 76 82 120t149 44t148.5 -50t85.5 -136q16 40 16 80q0 94 -160 251q-139 -47 -307 -47q-323 0 -513.5 172
t-192.5 473q0 65 6 115h-57v150zM1098 840q0 -87 78 -168q127 65 127 164q0 110 -99 110q-46 0 -76 -28.5t-30 -77.5z" />
    <glyph glyph-name="uniABCF" unicode="&#xabcf;" horiz-adv-x="1550" 
d="M76 1350h1392v-150h-1181q108 -139 213.5 -202t261.5 -107l133 -39q234 -68 353 -134.5t175 -151.5t56 -191q0 -180 -99 -282.5t-266 -102.5q-70 0 -141 23.5t-121 64.5l94 127q83 -62 168 -62q92 0 144.5 64.5t52.5 171.5q0 74 -40.5 126t-118.5 91.5t-265 91.5
q-90 26 -184 57t-185 80q78 -156 78 -301q0 -207 -135.5 -347.5t-368.5 -176.5l-47 160q187 26 286 123t99 256q0 149 -96 334t-254 327h-4v150z" />
    <glyph glyph-name="uniABD0" unicode="&#xabd0;" horiz-adv-x="1526" 
d="M53 1350h1372v-150h-1173q136 -227 182 -422q100 37 187 37q74 0 215 -31q49 -11 97 -20.5t99 -9.5q65 0 135 21.5t125 68.5l76 -133q-74 -63 -159.5 -84t-176.5 -21q-59 0 -174 27q-53 11 -110.5 21t-126.5 10q-73 0 -166 -35l2 -16v-17q0 -204 -92 -408q123 33 217 33
q115 0 262 -35q156 -39 268 -39q84 0 145 25.5t109 87.5l121 -102q-137 -162 -375 -162q-104 0 -252 35q-164 39 -274 39q-109 0 -200 -26t-148 -71q-75 34 -142 74q185 289 185 547q0 112 -31 222t-83.5 211t-113.5 173v150z" />
    <glyph glyph-name="uniABD1" unicode="&#xabd1;" horiz-adv-x="1589" 
d="M1534 178q-272 -186 -627 -186q-238 0 -427.5 98t-283.5 271t-94 411q0 226 58 428h-84v150h1437v-150h-331v-1020q135 43 254 129zM274 772q0 -207 83 -352t247 -218v998h-257q-32 -88 -52.5 -199.5t-20.5 -228.5zM905 143q64 0 109 5v1052h-242v-1047q68 -10 133 -10z
" />
    <glyph glyph-name="uniABD2" unicode="&#xabd2;" horiz-adv-x="1612" 
d="M1550 809q-19 -140 -91.5 -213.5t-186.5 -73.5q-268 0 -268 283v395h-220v-1200h-170v1200h-239v-1200h-166v1200h-127v150h1409v-148h-328v-407q0 -67 27.5 -97t83.5 -30t83.5 46.5t37.5 135.5z" />
    <glyph glyph-name="uniABD3" unicode="&#xabd3;" horiz-adv-x="1409" 
d="M76 1350h1247v-150h-129l-844 -510l2 -10l744 113l49 -162l-187 -27q-109 -15 -176 -81.5t-67 -166.5q0 -101 59.5 -160t157.5 -59q99 0 213 70l37 -64l39 -65q-78 -57 -155 -74.5t-148 -17.5q-106 0 -190 41.5t-132.5 119.5t-48.5 193q0 71 26.5 131t77.5 100l-368 -57
l-117 246l735 440h-825v150z" />
    <glyph glyph-name="uniABD4" unicode="&#xabd4;" horiz-adv-x="1610" 
d="M1362 920q-2 158 -36.5 238.5t-119.5 80.5q-91 0 -128.5 -59.5t-37.5 -212.5v-967h-964v856q0 245 123 382.5t356 137.5q135 0 223.5 -45t151.5 -143q27 100 99.5 153.5t182.5 53.5q150 0 230.5 -114.5t85.5 -338.5zM872 901q0 151 -83 235.5t-232 84.5
q-148 0 -229.5 -87.5t-81.5 -250.5v-160h626v178zM246 145h626v433h-626v-433z" />
    <glyph glyph-name="uniABD5" unicode="&#xabd5;" horiz-adv-x="1448" 
d="M70 1350h1302v-150q-95 -47 -256.5 -153.5t-288.5 -217.5q130 -121 186 -191.5t85.5 -138t29.5 -139.5q0 -111 -47 -195t-143 -133.5t-215 -49.5q-117 0 -209.5 44.5t-145.5 129t-53 204.5q0 98 63 202.5t236 268.5q-72 64 -171.5 136t-215 142.5t-157.5 90.5v150z
M494 367q0 -108 64 -174t165 -66q99 0 163 67t64 173q0 80 -59 170.5t-168 177.5q-229 -163 -229 -348zM336 1200q214 -128 387 -272q156 138 383 272h-770z" />
    <glyph glyph-name="uniABD6" unicode="&#xabd6;" horiz-adv-x="1364" 
d="M1288 1202q-245 -126 -354 -191.5t-198.5 -132.5t-153.5 -137t-101 -145t-37 -158q0 -144 77 -221.5t229 -77.5q160 0 311 146q14 -16 56 -58t61 -59q-79 -73 -140.5 -108t-136 -56.5t-164.5 -21.5q-137 0 -249.5 55.5t-167 153.5t-54.5 231q0 207 166 395.5t531 382.5
h-895v150h1220v-148z" />
    <glyph glyph-name="uniABD7" unicode="&#xabd7;" horiz-adv-x="1565" 
d="M1356 907q-75 -102 -117.5 -225t-42.5 -238q0 -136 63 -208t181 -72l55 4l21 -154q-23 -4 -76 -4q-122 0 -215 51t-145 147t-52 230q0 230 154 482q-278 -57 -480 -140q81 -109 120.5 -205t39.5 -192q0 -124 -49.5 -211t-136 -132.5t-199.5 -45.5q-94 0 -177.5 46
t-132 128.5t-48.5 189.5q0 280 338 473q-138 149 -213.5 221t-167.5 148v150h1392v-150h-1163q191 -182 295 -299q220 92 588 170zM696 385q0 142 -141 324q-268 -154 -268 -355q0 -95 56 -148.5t142 -53.5q101 0 156 61.5t55 171.5z" />
    <glyph glyph-name="uniABD8" unicode="&#xabd8;" horiz-adv-x="1554" 
d="M1497 43q-90 -33 -170 -33q-148 2 -233.5 86t-85.5 226q0 60 25 116.5t75 98.5h-354v-134q0 -184 -93 -285.5t-264 -101.5q-100 0 -178.5 47.5t-122 127.5t-43.5 167q0 159 108 243.5t306 84.5h117v514h-545v150h1417v-150h-702v-514h663v-149q-115 -3 -181.5 -56
t-66.5 -147q0 -79 48.5 -124.5t125.5 -45.5q51 0 95 20zM584 537h-131q-108 0 -170 -48t-62 -133q0 -82 48.5 -134t123.5 -52q93 0 142 64.5t49 187.5v115z" />
    <glyph glyph-name="uniABD9" unicode="&#xabd9;" horiz-adv-x="1208" 
d="M664 0v106q-101 -112 -250 -112q-136 0 -229 95t-93 230q0 114 51 193t162 129l78 -141q-125 -71 -125 -178q0 -77 50 -126t132 -49q74 0 135.5 53t88.5 138v860h-580v152h1061v-152h-316v-1198h-165z" />
    <glyph glyph-name="uniABDA" unicode="&#xabda;" horiz-adv-x="1241" 
d="M930 0v1200h-316v-500q0 -132 -69.5 -206t-190.5 -74q-243 0 -307 270l154 51q23 -89 55 -127.5t92 -38.5q53 0 78 35.5t25 87.5v502h-361v150h1065v-150h-59v-1200h-166z" />
    <glyph glyph-name="uniABDB" unicode="&#xabdb;" horiz-adv-x="1751" 
d="M1171 0h-1015v1198h-70v152h1575v-152h-70v-463h-166v463h-254v-1198zM324 143h260v1055h-260v-1055zM754 143h252v1055h-252v-1055z" />
    <glyph glyph-name="uniABDC" unicode="&#xabdc;" horiz-adv-x="1106" 
d="M793 0v80q0 325 -145.5 493t-430.5 168h-72v150h72q231 0 362 -67.5t205 -205.5h9v582h-715v150h948v-150h-70v-1200h-163z" />
    <glyph glyph-name="uniABDD" unicode="&#xabdd;" horiz-adv-x="1214" 
d="M1085 557h-309v-557h-166v557h-286v-557h-166v1198h-70v152h1063v-152h-375v-496h309v-145zM324 702h286v496h-286v-496z" />
    <glyph glyph-name="uniABDE" unicode="&#xabde;" horiz-adv-x="1663" 
d="M750 0v1200h-451q129 -157 197.5 -324t68.5 -319q0 -140 -56.5 -259t-161 -196.5t-247.5 -101.5l-47 150q166 35 256 148.5t90 285.5q0 154 -83 317.5t-232 298.5v150h1493v-150q-141 -139 -225 -306t-84 -310q0 -173 89 -286t253 -148l-45 -150q-143 24 -248 101.5
t-162 196.5t-57 259q0 150 70 318t200 325h-453v-1200h-165z" />
    <glyph glyph-name="uniABDF" unicode="&#xabdf;" horiz-adv-x="1563" 
d="M1444 201q-308 -209 -658 -209q-190 0 -346.5 88t-237.5 237t-81 342q0 260 82 541h-127v150h1411v-150h-125l-186 -356l-150 53l166 303h-424q-88 -264 -88 -395q0 -112 55.5 -174t157.5 -62q58 0 127.5 22.5t126.5 61.5l92 -125q-86 -55 -180.5 -82.5t-177.5 -27.5
q-172 0 -268.5 102t-96.5 287q0 146 76 393h-207q-90 -284 -90 -541q0 -161 61.5 -277.5t175.5 -177.5t269 -61q296 0 545 179z" />
    <glyph glyph-name="uniABE0" unicode="&#xabe0;" horiz-adv-x="1407" 
d="M252 868q307 0 481 -37q58 77 157 190t318 341l113 -105q-293 -293 -422 -466q194 -64 290.5 -173.5t96.5 -259.5q0 -107 -48.5 -189.5t-132 -128.5t-175.5 -46q-115 0 -202 44.5t-136 127.5t-49 205q0 153 104 325q-147 21 -336 21q-73 0 -155 -6l-111 125l320 530
l147 -82zM713 373q0 -108 55 -164.5t154 -56.5q87 0 142.5 54.5t55.5 147.5q0 214 -311 303q-96 -150 -96 -284z" />
    <glyph glyph-name="uniABE1" unicode="&#xabe1;" horiz-adv-x="1339" 
d="M1171 0h-1015v1198h-70v152h1163v-152h-78v-1198zM748 143h253v1055h-253v-1055zM328 143h254v1055h-254v-1055z" />
    <glyph glyph-name="uniABE2" unicode="&#xabe2;" horiz-adv-x="1538" 
d="M995 365q16 -95 54 -138t106 -43t110 48.5t42 127.5q0 138 -96 206.5t-314 68.5q-127 0 -305 -41l4 -70q0 -207 -135.5 -347.5t-368.5 -176.5l-47 160q187 26 286 123t99 256q0 155 -96.5 337t-257.5 324v150h1394v-150h-1183q196 -222 272 -461q193 43 332 43
q300 0 441 -103t141 -312q0 -104 -42.5 -177.5t-115 -114t-160.5 -40.5q-141 0 -223 75t-101 214z" />
    <glyph glyph-name="uniABE3" unicode="&#xabe3;" horiz-adv-x="543" 
d="M55 1722q207 -123 313.5 -247t106.5 -232q0 -90 -60.5 -144.5t-152.5 -54.5q-95 0 -152 55t-57 148q0 70 37 120.5t100 94.5q-34 38 -89 74t-117 74zM338 1253q0 38 -16 73.5t-43 59.5q-44 -27 -70.5 -59.5t-26.5 -79.5q0 -40 22 -62t54 -22q31 0 55.5 24.5t24.5 65.5z
" />
    <glyph glyph-name="uniABE4" unicode="&#xabe4;" horiz-adv-x="838" 
d="M233 -4v1196h-194v158h194v110q0 137 72 204t203 67q122 0 196 -68.5t74 -187.5q0 -137 -94 -209t-276 -74v-1196h-175zM408 1350q103 0 150.5 32.5t47.5 100.5q0 102 -98 102q-51 0 -75.5 -27t-24.5 -98v-110z" />
    <glyph glyph-name="uniABE5" unicode="&#xabe5;" 
d="M-528 1915l340 -291l-91 -111l-352 269z" />
    <glyph glyph-name="uniABE6" unicode="&#xabe6;" horiz-adv-x="629" 
d="M33 1096q0 110 79.5 185t190.5 75q120 0 201.5 -75t81.5 -185q0 -106 -80 -178t-203 -72q-114 0 -192 72t-78 178zM303 1227q-49 0 -85 -36.5t-36 -88.5q0 -54 34.5 -89.5t86.5 -35.5q56 0 91.5 34.5t35.5 90.5q0 53 -37 89t-90 36z" />
    <glyph glyph-name="uniABE7" unicode="&#xabe7;" horiz-adv-x="680" 
d="M380 1308q0 -48 -6.5 -95t-32.5 -85t-78 -61.5t-142 -23.5h-81v141h84q41 0 64.5 10.5t35 27.5t14.5 37.5t5 40.5q-182 0 -280 102t-103 320h137q3 -157 63.5 -231.5t174.5 -75.5q-8 29 -11.5 53t-3.5 58q0 97 53 149.5t150 52.5q43 0 79.5 -15t62.5 -41t40.5 -61.5
t14.5 -76.5q0 -92 -59.5 -144.5t-180.5 -81.5zM349 1521q0 -25 3.5 -44t11.5 -46q66 15 96.5 38t30.5 59q0 75 -68 75q-74 0 -74 -82z" />
    <glyph glyph-name="uniABE8" unicode="&#xabe8;" 
d="M-248 -410l3 27l3 53q0 50 -18.5 73.5t-65.5 23.5q-32 0 -57 -22t-25 -60v-95h-118v95q0 38 -25.5 60t-62.5 22q-45 0 -63.5 -23.5t-18.5 -73.5q0 -59 6 -80h-113q-8 56 -8 86q0 102 49 152.5t141 50.5q108 0 154 -80q23 38 62 59t86 21q192 0 192 -203q0 -66 -8 -86
h-113z" />
    <glyph glyph-name="uniABE9" unicode="&#xabe9;" 
d="M-485 2007q2 -114 23.5 -175t65.5 -95.5t115 -38.5v98q0 106 57 162.5t163 56.5q94 0 156.5 -58.5t62.5 -146.5q0 -103 -78.5 -168t-216.5 -69v-164h-144v164q-170 5 -258 107.5t-88 326.5h142zM-137 1698q76 2 112.5 28t36.5 84q0 78 -69 78q-44 0 -62 -24t-18 -74v-92z
" />
    <glyph glyph-name="uniABEA" unicode="&#xabea;" 
d="M-302 1492q108 85 160 149q-68 29 -118 96t-50 130q0 84 59.5 141t147.5 57q87 0 148 -56t61 -138q0 -96 -82.5 -219.5t-235.5 -255.5zM-71 1729q50 59 50 121q0 38 -22.5 66t-57.5 28t-56.5 -26t-21.5 -60q0 -29 19.5 -56t88.5 -73z" />
    <glyph glyph-name="uniABEB" unicode="&#xabeb;" horiz-adv-x="913" 
d="M176 -61v1470h168v-1470h-168zM584 -61v1470h166v-1470h-166z" />
    <glyph glyph-name="uniABEC" unicode="&#xabec;" horiz-adv-x="516" 
d="M262 416q56 0 93.5 -38t37.5 -91q0 -56 -37 -94.5t-94 -38.5q-51 0 -88 38.5t-37 94.5q0 54 37.5 91.5t87.5 37.5z" />
    <glyph glyph-name="uniABED" unicode="&#xabed;" 
d="M-1180 -223h2509v-146h-2509v146z" />
    <glyph glyph-name="uniABF0" unicode="&#xabf0;" horiz-adv-x="1313" 
d="M90 659q0 329 147.5 521t401.5 192q271 0 420 -187.5t149 -525.5q0 -204 -69 -360t-198 -240t-302 -84q-252 0 -400.5 184.5t-148.5 499.5zM639 1219q-186 0 -284.5 -140.5t-98.5 -408.5q0 -266 97 -403.5t286 -137.5q199 0 295 128t96 413q0 286 -96.5 417.5
t-294.5 131.5z" />
    <glyph glyph-name="uniABF1" unicode="&#xabf1;" horiz-adv-x="1196" 
d="M680 924q16 -31 53 -55.5t74 -24.5q61 0 95 36.5t34 108.5q0 228 -330 228q-169 0 -262.5 -67t-93.5 -185q0 -98 76.5 -183.5t265.5 -179.5q176 -91 241.5 -174t65.5 -192q0 -120 -81.5 -192.5t-211.5 -72.5q-101 0 -186.5 47t-145.5 134l134 81q36 -53 89.5 -85.5
t102.5 -32.5q62 0 99.5 34.5t37.5 94.5q0 66 -60.5 125.5t-201.5 136.5q-172 93 -242.5 154.5t-109.5 135t-39 169.5q0 182 139.5 289.5t380.5 107.5q146 0 260 -48t177 -133.5t63 -189.5q0 -142 -75 -222.5t-218 -80.5q-81 0 -151.5 39.5t-114.5 108.5z" />
    <glyph glyph-name="uniABF2" unicode="&#xabf2;" horiz-adv-x="1303" 
d="M680 924q16 -31 53 -55.5t74 -24.5q61 0 95 36.5t34 108.5q0 114 -86 171t-248 57q-174 0 -267 -66.5t-93 -192.5q0 -97 79 -185t269 -183l100 -51l12 2h9l31 2h34q228 0 351.5 -102t123.5 -287q0 -72 -18 -142l-164 33q18 58 18 119q0 116 -68 183t-198 71
q80 -82 80 -180q0 -112 -80.5 -184t-204.5 -72q-129 0 -205.5 65.5t-76.5 177.5q0 73 44.5 138.5t125.5 111.5l-19 10l-28 19q-153 83 -227.5 147.5t-115 138.5t-40.5 168q0 190 140 297t386 107q146 0 261 -48t178 -133t63 -190q0 -144 -75.5 -223.5t-215.5 -79.5
q-84 0 -156 41t-110 107zM731 233q0 105 -86 158q-63 -16 -105 -60t-42 -104q0 -42 29 -71t89 -29q53 0 84 28.5t31 77.5z" />
    <glyph glyph-name="uniABF3" unicode="&#xabf3;" horiz-adv-x="1729" 
d="M725 233q0 96 -82 158q-61 -16 -102 -60.5t-41 -103.5q0 -42 28.5 -71t85.5 -29q45 0 78 25t33 81zM678 924q19 -32 56.5 -56t74.5 -24q61 0 94 36t33 109q0 114 -86.5 171t-249.5 57q-172 0 -264 -66t-92 -193q0 -74 33.5 -132.5t94 -108t226.5 -137.5l88 -48
q120 21 234 21q158 0 274 -55q54 34 104 52.5t109 18.5q86 0 153 -29.5t126 -103.5l-111 -90q-41 50 -79.5 72t-94.5 22q-42 0 -82 -22q52 -53 74 -101t22 -108q0 -94 -60 -148.5t-159 -54.5q-91 0 -150 55t-59 144q0 106 86 201q-64 22 -127 22q-81 0 -135 -16
q74 -83 74 -183q0 -116 -74.5 -181.5t-196.5 -65.5q-126 0 -203 66t-77 177q0 150 170 242q-191 102 -269.5 169t-119.5 144.5t-41 177.5q0 190 140 297t384 107q146 0 261.5 -48t179 -132.5t63.5 -190.5q0 -143 -74 -223t-215 -80q-86 0 -156.5 40t-109.5 108zM1274 223
q0 82 -72 142q-76 -58 -76 -144q0 -42 18 -67t52 -25q78 0 78 94z" />
    <glyph glyph-name="uniABF4" unicode="&#xabf4;" horiz-adv-x="1174" 
d="M537 508q98 145 274 145q133 0 206 -79.5t73 -219.5q0 -107 -63 -194.5t-176 -136t-259 -48.5q-242 0 -377 108.5t-135 301.5q0 102 44.5 182.5t135 149.5t279.5 157q137 67 184 113.5t47 99.5q0 58 -38 94t-99 36q-87 0 -143 -50t-66 -141l-158 35q16 100 68 166
t129 100.5t170 34.5q130 0 214.5 -77t84.5 -200q0 -70 -31 -122.5t-87.5 -96.5t-221.5 -125q-137 -67 -205 -118.5t-106.5 -110.5t-38.5 -127q0 -127 90.5 -194.5t261.5 -67.5q156 0 244 62.5t88 170.5q0 154 -119 154q-47 0 -79 -19.5t-58 -62.5z" />
    <glyph glyph-name="uniABF5" unicode="&#xabf5;" horiz-adv-x="1264" 
d="M983 879q51 56 51 120q0 94 -103.5 148.5t-281.5 54.5q-203 0 -305 -73.5t-102 -227.5q0 -118 58.5 -190t164.5 -93v52q0 139 60.5 205.5t189.5 66.5q107 0 167 -61.5t60 -165.5q0 -117 -80.5 -181t-226.5 -71v-463h-170v471q-187 29 -293 144.5t-106 283.5
q0 223 150.5 340t436.5 117q245 0 399 -106t154 -273q0 -116 -92 -221zM717 801q-34 0 -51.5 -13.5t-25 -43.5t-7.5 -128q57 0 89 11.5t47 31.5t15 60q0 36 -17 59t-50 23z" />
    <glyph glyph-name="uniABF6" unicode="&#xabf6;" horiz-adv-x="1303" 
d="M989 879q49 51 49 120q0 94 -103.5 148.5t-281.5 54.5q-407 0 -407 -293q0 -115 59 -191.5t166 -99.5v52q0 140 59.5 206t188.5 66q107 0 167 -61.5t60 -165.5q0 -114 -81.5 -179t-229.5 -73v-285l522 408l92 -117q-269 -203 -610 -469h-168v471q-190 28 -295.5 145.5
t-105.5 292.5q0 217 152 332t435 115q245 0 399 -106t154 -273q0 -116 -92 -221zM721 801q-34 0 -51.5 -13.5t-25 -43.5t-7.5 -128q57 0 89 11.5t47 31.5t15 60q0 36 -17 59t-50 23z" />
    <glyph glyph-name="uniABF7" unicode="&#xabf7;" horiz-adv-x="1614" 
d="M109 999q-23 62 -23 127q0 61 37.5 118t104.5 90.5t147 33.5q147 0 243 -162.5t132 -468.5l307 125q-25 81 -43.5 152.5t-18.5 134.5q0 105 74 173.5t188 68.5q122 0 200.5 -72.5t78.5 -188.5q0 -101 -64 -180t-227 -166q84 -320 84 -495q0 -138 -88.5 -221.5
t-251.5 -92.5l-41 152q115 12 168 59t53 142q0 171 -65 385q-215 -88 -342 -135l4 -136q0 -221 -85.5 -338.5t-246.5 -117.5q-120 0 -203.5 77.5t-83.5 196.5q0 120 99.5 218.5t335.5 195.5q-25 256 -80.5 402.5t-134.5 146.5q-49 0 -80 -26.5t-31 -70.5q0 -30 14 -69z
M596 442v32l-2 36q-154 -72 -216.5 -131t-62.5 -123q0 -53 31 -89t88 -36q78 0 120 81.5t42 229.5zM1198 928q80 41 127 98.5t47 118.5q0 49 -29 80.5t-77 31.5q-52 0 -83.5 -31t-31.5 -83q0 -76 47 -215z" />
    <glyph glyph-name="uniABF8" unicode="&#xabf8;" horiz-adv-x="1280" 
d="M989 879q51 56 51 120q0 94 -103 148.5t-282 54.5q-409 0 -409 -293q0 -113 59 -190.5t166 -100.5v52q0 139 60.5 205.5t189.5 66.5q107 0 167 -61.5t60 -165.5q0 -117 -80.5 -181t-226.5 -71v-252q0 -101 -65.5 -162t-169.5 -61q-93 0 -156.5 41.5t-124.5 138.5l125 92
q50 -80 76.5 -102.5t64.5 -22.5q80 0 80 92v244q-188 28 -293.5 145.5t-105.5 292.5q0 217 152 332t435 115q245 0 399 -106t154 -273q0 -116 -92 -221zM723 801q-34 0 -51.5 -13.5t-25 -43.5t-7.5 -128q56 0 89 11.5t48 31t15 60.5q0 37 -18 59.5t-50 22.5z" />
    <glyph glyph-name="uniABF9" unicode="&#xabf9;" horiz-adv-x="1300" 
d="M1024 309h-385v-90q0 -106 -67 -168.5t-179 -62.5q-102 0 -167.5 60.5t-65.5 158.5q0 225 286 225h39v90q-409 63 -409 404q0 205 153.5 317.5t434.5 112.5q245 0 399 -106t154 -273q0 -126 -76 -215l-142 106q45 63 45 131q0 96 -103.5 153.5t-281.5 57.5
q-194 0 -301.5 -75t-107.5 -209q0 -230 231 -279v53q0 273 244 273q106 0 166.5 -63.5t60.5 -164.5q0 -104 -78.5 -158.5t-234.5 -64.5v-90h385v-123zM397 119q88 0 88 104v88q-99 0 -132.5 -23t-33.5 -71q0 -98 78 -98zM727 831q-54 0 -74 -36t-20 -150q79 0 120.5 25
t41.5 80q0 37 -18.5 59t-49.5 22z" />
    <glyph glyph-name="uniABED.alt1" 
d="M-1450 -223h3200v-146h-3200v146z" />
    <glyph glyph-name="uniABED.alt2" 
d="M-1450 -223h3800v-146h-3800v146z" />
    <glyph glyph-name="uniABED.alt3" 
d="M-1750 -223h3200v-146h-3200v146z" />
    <glyph glyph-name="uniABED.alt4" 
d="M-1750 -223h3500v-146h-3500v146z" />
    <glyph glyph-name="uniABED.alt5" 
d="M-1750 -223h4100v-146h-4100v146z" />
    <glyph glyph-name="uniABED.alt6" 
d="M-2350 -223h3800v-146h-3800v146z" />
    <glyph glyph-name="uniABED.alt7" 
d="M-2350 -223h4100v-146h-4100v146z" />
    <glyph glyph-name="uniABED.alt8" 
d="M-2350 -223h4700v-146h-4700v146z" />
  </font>
</defs>
</svg>
